# xmcd CD database file
#
# Track frame offsets:
#	150
#	11299
#	25934
#	51631
#	68628
#	89602
#	105474
#	120520
#	160881
#	182642
#
# Disc length: 2685 seconds
#
# Revision: 1
# Processed by: cddbd v1.5.2PL0 Copyright (c) Steve Scherf et al.
# Submitted via: CDex 1.51
#
DISCID=7a0a7b0a
DTITLE=Matt Sicchieri Band - Blues Revolution
DYEAR=2003
DGENRE=Blues
TTITLE0=Outs
TTITLE1=Blues Rainy Day
TTITLE2=Monterosso Train
TTITLE3=Spirit In The Dark
TTITLE4=Voodoo Child (slight return)
TTITLE5=Blues Revolutions
TTITLE6=I Don't Want Nobody
TTITLE7=This Is A Man's World
TTITLE8=Me And The Devil
TTITLE9=Put It Where You Want It
EXTD=YEAR: 2003
EXTT0=
EXTT1=
EXTT2=
EXTT3=
EXTT4=
EXTT5=
EXTT6=
EXTT7=
EXTT8=
EXTT9=
PLAYORDER=
